<svg width="257" height="257" viewBox="0 0 257 257" fill="none" xmlns="http://www.w3.org/2000/svg">
<path fill-rule="evenodd" clip-rule="evenodd" d="M0 132.972V124.003C2.37725 55.2229 59.0843 0 128.461 0C199.342 0 257 57.6322 257 128.487C257 199.355 199.336 257 128.461 257C59.0843 257 2.37725 201.771 0 132.972ZM128 237C188.104 237 237 188.11 237 127.987C237 67.8961 188.104 19 128 19C67.8897 19 19 67.8961 19 127.987C19 188.11 67.8897 237 128 237ZM202 92.513C202 81.788 193.206 73.013 182.565 73.013V73C172.368 72.9773 163.859 80.7797 163 90.94V94.06C163.865 104.217 172.371 112.016 182.565 112C193.292 111.936 201.965 103.24 202 92.513ZM148 73H128C117.047 73 108 81.8906 108 92.7612V183H128C138.973 183 148 173.871 148 163V91V73ZM92.9539 162.8C92.9287 162.541 92.9025 162.273 92.9025 161.977C92.0754 151.863 83.6392 144.066 73.5 144C62.7304 144 54 152.726 54 163.49C54 174.229 62.775 183 73.5 183C83.6644 182.954 92.0984 175.132 92.9025 165.004C92.9025 164.744 92.9269 164.5 92.9512 164.257C92.9756 164.013 93 163.77 93 163.51C93 163.272 92.9774 163.04 92.9539 162.8Z" fill="#F73859"/>
</svg>
